<svg xmlns="http://www.w3.org/2000/svg" width="280" height="64" viewBox="0 0 280 64">
  <rect x="0" y="0" width="280" height="64" fill="#0b0b10"/>
  <rect x="0" y="0" width="8" height="8" fill="#ffd400"/>
  <rect x="0" y="56" width="8" height="8" fill="#ffd400"/>
  <rect x="272" y="0" width="8" height="8" fill="#ffd400"/>
  <rect x="272" y="56" width="8" height="8" fill="#ffd400"/>
  <text x="16" y="28" fill="#f7f7fb" font-family="Press Start 2P, monospace" font-size="12">SEVEN DE</text>
  <text x="16" y="52" fill="#ffd400" font-family="Press Start 2P, monospace" font-size="16">BURGERS</text>
  <rect x="210" y="14" width="48" height="36" fill="none" stroke="#00e5ff" stroke-width="2"/>
  <g fill="#ff2d55">
    <rect x="214" y="18" width="3" height="3"/>
    <rect x="218" y="18" width="3" height="3"/>
    <rect x="222" y="18" width="3" height="3"/>
    <rect x="226" y="18" width="3" height="3"/>
    <rect x="230" y="18" width="3" height="3"/>
    <rect x="234" y="18" width="3" height="3"/>
    <rect x="238" y="18" width="3" height="3"/>
    <rect x="238" y="22" width="3" height="3"/>
    <rect x="234" y="26" width="3" height="3"/>
    <rect x="230" y="30" width="3" height="3"/>
    <rect x="226" y="34" width="3" height="3"/>
    <rect x="222" y="38" width="3" height="3"/>
    <rect x="218" y="42" width="3" height="3"/>
    <rect x="214" y="46" width="3" height="3"/>
  </g>
</svg>
